<svg xmlns="http://www.w3.org/2000/svg" width="400" height="200" viewBox="0 0 0 0 400 200"><g fill-rule="evenodd"><path d="M190.167 44.25l-10.084 5.065-8.044.009-8.045.009-.987 1.503c-1.744 2.657-4.84 9.314-4.84 10.408 0 .228 1.247.256 11.187.256h11.187l4.854-2.438c2.67-1.34 7.13-3.598 9.911-5.016l5.057-2.579 6.86 3.457c3.773 1.902 8.224 4.159 9.89 5.017l3.029 1.559h11.262c7.006 0 11.263-.06 11.263-.158 0-1.199-3.004-7.595-5.111-10.884l-.72-1.125H220.81l-10.053-5.083c-5.529-2.796-10.155-5.079-10.28-5.074-.125.005-4.764 2.288-10.31 5.074m.25 17.467l-10 5.033-11.834.083-11.833.084-.196 1.166c-.438 2.603-.598 8.37-.289 10.375l.083.542H180.709l9.854-4.988 9.854-4.988 3.916 2c2.155 1.1 6.594 3.345 9.866 4.988L220.147 79H244.472l.12-1.288c.224-2.39-.081-8.663-.511-10.504l-.087-.375h-23.2l-10.138-5.083c-5.576-2.796-10.161-5.079-10.189-5.074-.028.005-4.55 2.274-10.05 5.041m-33.315 21.919c-.305.494 1.664 6.499 3.194 9.739l.925 1.958 39.181-.003 39.181-.004.729-1.538c1.503-3.171 3.031-7.602 3.303-9.58l.097-.708h-43.263c-23.794 0-43.3.061-43.347.136m7.235 16.656c.032 1.137 7.287 8.287 10.856 10.699l1.494 1.009h47.441l1.144-.776c3.789-2.571 11.228-9.844 11.228-10.978 0-.043-16.238-.079-36.083-.079-19.846 0-36.082.056-36.08.125" fill="#fbfb04"/><path d="M195.917 6.247c-.092.029-1.18.144-2.417.254-1.238.11-3.121.343-4.185.516-1.065.174-2.12.316-2.346.316-.313 0-.498.168-.782.709-.205.389-.628 1.12-.94 1.625-.661 1.067-.697 1.499-.258 3.083 1.35 4.881 1.377 5.082.83 6.168-.851 1.687-2.302 3.082-3.207 3.082-.219 0-.842.224-2.862 1.031-1.889.754-5.839 2.668-6.668 3.231-1.737 1.179-4.603.333-5.99-1.768a15.249 15.249 0 0 0-.774-1.077c-.155-.184-.477-.712-.716-1.174-.861-1.668-2.369-2.641-4.411-2.846-1.237-.125-1.439-.027-3.698 1.799-2.83 2.286-6.084 5.364-8.168 7.728-.408.463-1.035 1.175-1.392 1.583-.716.817-2.573 3.241-3.807 4.969-.921 1.291-.944 1.501-.395 3.601.415 1.588.859 2.171 2.157 2.834.291.149 1.054.601 1.695 1.006.642.404 1.447.889 1.79 1.078 2.052 1.13 2.301 3.952.662 7.505a43.664 43.664 0 0 0-.946 2.25c-.245.642-.59 1.533-.767 1.981-.177.447-.322.906-.322 1.019 0 .113-.143.572-.318 1.019-.174.448-.488 1.264-.696 1.814-.437 1.154-.852 1.708-1.854 2.471-1.614 1.231-2.091 1.25-6.486.267-3.837-.858-5.876.647-6.473 4.777-.322 2.232-.21 13.02.163 15.647.182 1.281.33 2.593.33 2.917-.001 1.394.635 2.894 1.381 3.255.379.183.887.499 1.13.702.91.762 1.78.836 3.78.32 5.138-1.325 5.676-1.289 7.818.534.359.306 1.225 1.858 1.225 2.196 0 .099.15.491.333.87.184.38.334.762.334.849 0 .087.158.505.351.927l.656 1.435c.168.367.891 1.867 1.607 3.333 2.111 4.323 1.674 6.574-1.614 8.321-.505.267-.955.53-1 .583-.046.053-.459.354-.917.67-1.479 1.018-1.719 1.335-2.082 2.754-.52 2.034-.338 3.2.675 4.313.132.145.315.362.407.482 2.829 3.687 7.836 8.621 11.747 11.576.873.659 1.786 1.353 2.029 1.541.244.189.525.344.625.344.1 0 .182.064.182.143 0 .079.33.319.734.533l.733.389 1.472-.286c.81-.158 1.726-.419 2.036-.58.52-.269.718-.527 1.69-2.199.186-.321.432-.73.545-.909 2.232-3.52 2.117-3.416 4.329-3.944l1.313-.313 1.949.933c2.952 1.413 3.299 1.566 3.559 1.566.132 0 .312.069.399.154.19.186 5.191 1.846 5.563 1.847.708.002 1.862 1.044 2.677 2.416.5.84.57 3.316.133 4.666-1.459 4.505.093 7.2 4.368 7.59 7.743.706 12.576.58 19.249-.502 2.211-.359 2.317-.398 2.646-.975 1.488-2.615 1.641-3.528.953-5.696-.189-.596-.344-1.221-.346-1.389-.001-.169-.162-.858-.358-1.533l-.356-1.226.381-.968c.602-1.524 3.235-3.717 4.463-3.717.147 0 .746-.253 2.868-1.208.413-.186 1.95-.923 3.417-1.639 3.245-1.582 3.203-1.572 4.905-1.249 1.643.312 2.16.59 2.691 1.449.22.356.448.647.507.647.06 0 .151.131.204.291.08.244 1.324 2.051 2.276 3.309.634.836 1.268 1.082 3.458 1.338 1.21.142 2.38-.421 4.102-1.975a45.5 45.5 0 0 1 1.124-.963 56.308 56.308 0 0 0 1.945-1.75c.683-.642 1.303-1.19 1.378-1.219.116-.044.933-.914 4.412-4.704.298-.324 1.244-1.526 2.103-2.673a449.071 449.071 0 0 1 1.941-2.577c1.51-1.965.644-5.012-1.838-6.466-4.639-2.717-4.748-2.82-5.133-4.81-.265-1.371-.067-2.452.785-4.28a34.48 34.48 0 0 0 .798-1.833l.669-1.772c.244-.641.51-1.391.591-1.666 1.658-5.613 3.514-7.328 7.048-6.511.569.131 1.896.406 2.951.61l1.916.371 1-.467c1.461-.681 2.281-1.635 2.765-3.215.542-1.775.608-14.497.091-17.622a82.85 82.85 0 0 1-.442-3c-.273-2.303-.645-2.774-2.997-3.794-1.24-.538-1.229-.539-4.75.38-.642.168-1.682.402-2.312.519l-1.146.215-1.097-.577c-1.419-.746-2.185-1.537-2.669-2.758-1.231-3.106-1.396-3.491-2.32-5.401-2.813-5.814-2.957-6.342-2.229-8.135.446-1.099 4.123-4.199 4.98-4.199 1.028 0 2.42-3.867 1.941-5.397-.097-.309-1.421-2.007-2.745-3.519L251.411 29c-.804-.915-4.439-4.553-5.675-5.678-2.175-1.98-7.007-5.551-7.764-5.738-.214-.053-.764.018-1.222.158-.458.14-1.028.255-1.267.256-.855.004-2.135 1.238-2.939 2.835-.115.23-.371.679-.569 1-.198.321-.446.734-.55.917-1.738 3.04-3.735 3.491-7.469 1.683-1.249-.605-2.329-1.1-2.402-1.1-.072 0-.525-.152-1.007-.339a47.2 47.2 0 0 0-4.13-1.418c-2.492-.739-2.872-.999-3.886-2.659-.726-1.189-.861-3.042-.32-4.377.758-1.871.739-4.461-.042-5.565-.282-.399-.642-.912-.799-1.142-.494-.719-.927-.977-1.787-1.067l-3.278-.343c-2.123-.223-9.839-.353-10.388-.176m11.166 24.554c11.353 1.885 21.684 7.95 28.307 16.616l1.274 1.666-8.04.082-8.041.082 8.159.085 8.159.085 1.054 1.666c11.022 17.434 8.202 40.864-6.641 55.169-20.169 19.438-52.567 15.89-67.991-7.446-2.841-4.297-5.643-11.009-6.245-14.956-.036-.238-.219-1.253-.405-2.255-.187-1.002-.34-2.015-.34-2.25 0-.236-.069-1.403-.153-2.595-.606-8.536 2.061-18.656 6.831-25.919l.983-1.498 8.128-.039 8.128-.039-8.061-.086-8.062-.086 1.162-1.5c5.523-7.134 12.833-12.292 21.378-15.086 2.836-.928 5.216-1.424 9.916-2.065 1.454-.199 8.594.052 10.5.369m18.97 125.216c-.646.187-1.665 1.338-1.897 2.142-.112.389-.154 6.026-.121 16.508l.048 15.916 3.209.046 3.208.045v-23.845l.792.81c.435.445 1.535 1.59 2.444 2.543a3578.62 3578.62 0 0 0 12.597 13.146c.596.611 2.393 2.481 3.993 4.154 3.078 3.218 3.491 3.518 4.85 3.518 1.023 0 1.605-.223 2.279-.873 1.089-1.05 1.051-.378 1.004-17.964l-.042-15.913-3.209-.045-3.208-.046-.005 11.962-.006 11.962-.433-.5c-.239-.275-2.018-2.142-3.953-4.149a2546.527 2546.527 0 0 1-12.18-12.685c-7.161-7.496-7.037-7.407-9.37-6.732M58 173.417v17.25h6.5v-14H86v14h6.333v-34.5H86v14H64.5v-14H58v17.25m59.25-17.149c-3.209.383-5.208.848-6.483 1.511-.284.148-.659.34-.832.427-3.536 1.783-7.124 5.911-7.859 9.044-.064.275-.275.95-.468 1.5-.339.968-.352 1.337-.408 11.458l-.058 10.459h6.358v-8.5H129v8.5h6.333v-32.399l-.448-.647c-.966-1.393-.795-1.368-9.468-1.392-4.217-.011-7.892.007-8.167.039m23.917.122c0 .189 1.129 2.637 1.704 3.693.287.528.347.649 2.099 4.25 10.026 20.606 12.449 25.458 12.917 25.867 1.315 1.152 3.614 1.056 4.665-.193.234-.279 1.079-1.838 1.877-3.465l4.195-8.542a3530.83 3530.83 0 0 0 4.406-9c1.615-3.319 1.792-3.676 2.13-4.292.577-1.052 4.007-8.203 4.007-8.355 0-.132-1.036-.186-3.542-.184l-3.542.003-1.691 3.456a24236.58 24236.58 0 0 1-8.338 17.012l-1.91 3.89-1.387-2.807a1291.57 1291.57 0 0 1-3.052-6.223 9314.456 9314.456 0 0 1-6.264-12.871l-1.191-2.453-3.542-.005c-2.848-.003-3.541.039-3.541.219m46.039-.061c-.895.214-1.761.898-2.169 1.716l-.381.762.048 12.471c.046 12.323.051 12.484.409 13.498.945 2.673 2.905 4.504 5.887 5.501.85.284 1.788.31 12.958.353l12.042.047v-6.5l-11.738-.047c-11.615-.046-11.743-.05-12.208-.396-.86-.637-.868-.739-.878-11.276l-.009-9.791h24.84l-.045-3.209-.045-3.208-14.084-.025c-7.745-.014-14.328.033-14.627.104m82.624.093c-.863.266-1.699 1.068-1.974 1.895-.298.891-.263 24.414.038 25.85.643 3.07 2.951 5.277 6.429 6.148 1.364.341 1.758.352 12.959.352h11.551v-6.488l-11.736-.048-11.737-.048-.451-.416c-.922-.851-.909-.688-.909-11.245v-9.755h24.833v-6.5l-14.125.011c-11.576.01-14.261.054-14.878.244m39.337.015c-2.281.794-2.167-.172-2.167 18.374v15.856h6.333v-28H334.326l.272.415c.47.718.268 6.271-.261 7.168-1.525 2.589-2.18 2.745-11.462 2.748l-7.208.002v6.333l2.208.005 2.208.005.764.703c.419.387 1.078.966 1.463 1.287.386.321.98.837 1.32 1.147.341.31 1.294 1.135 2.117 1.833a92.305 92.305 0 0 1 1.762 1.52c.449.424 1.352 1.206 2.573 2.229.642.538 1.205 1.027 1.251 1.085.046.059.469.425.94.814l.857.706h4.768c3.439 0 4.769-.053 4.769-.189 0-.244-.608-.813-3.17-2.971a114.414 114.414 0 0 1-1.838-1.584c-.85-.756-1.39-1.224-3.076-2.666a99.004 99.004 0 0 1-1.349-1.169c-.1-.094-.496-.434-.879-.755a64.716 64.716 0 0 1-1.485-1.291l-.787-.707.954-.001c3.191-.002 7.404-2.699 8.984-5.751 1.894-3.658 1.888-11.392-.011-14.152-.973-1.414-2.28-2.377-3.927-2.894-1.271-.399-25.796-.49-26.916-.1M129 169.25v6.583h-21.5v-1.625c-.001-.893.122-2.3.273-3.125.244-1.338.519-2.065 1.455-3.848.349-.665 2.008-2.325 2.673-2.674 3.404-1.788 3.889-1.87 11.141-1.884l5.958-.01v6.583m64.333 4.167v3.25h19.834v-6.5h-19.834v3.25m83 0v3.25H296v-6.5h-19.667v3.25" fill="#1c74bc"/><path d="M196.583 30.432c-5.824.795-8.797 1.515-12.833 3.109-7.184 2.837-16.713 10.355-19.436 15.334-.15.276.274.292 7.888.291l8.048-.001 10.057-4.999c5.531-2.75 10.125-4.999 10.209-4.999.083 0 4.653 2.25 10.154 5.001l10.002 5.002 7.996-.043 7.996-.044-1.274-1.666c-6.623-8.666-16.954-14.731-28.307-16.616-1.906-.317-9.046-.568-10.5-.369m-6.044 26.078l-9.868 4.99h-11.335c-6.235 0-11.336.019-11.337.042-.001.023-.263 1.079-.583 2.348-.321 1.269-.583 2.45-.583 2.625 0 .31.296.318 11.569.318h11.569l10.274-5.105 10.274-5.106 10.141 5.106 10.141 5.105h23.225l-.106-.541c-.059-.298-.342-1.498-.629-2.667l-.522-2.125h-22.647l-9.858-4.99-9.858-4.99-9.867 4.99m7.378 13.809c-1.192.616-5.536 2.822-9.653 4.901L180.778 79h-12.144c-10.613 0-12.156.031-12.24.249-.091.236.074 1.455.456 3.376l.174.875h86.775l.258-1.458c.142-.802.281-1.796.309-2.209l.051-.75L232.083 79l-12.333-.083-5.25-2.687c-9.001-4.607-13.947-7.064-14.186-7.048-.127.008-1.206.52-2.397 1.137m-36.584 25.125c0 .175.786 1.507 1.875 3.181l1.003 1.542 36.186-.003 36.186-.003.943-1.455A52.78 52.78 0 0 0 239 96.292l.532-.959h-39.099c-21.505 0-39.1.05-39.1.111m15.766 16.794c1.496 1.048 6.367 3.339 8.984 4.226 12.269 4.159 26.123 2.714 37-3.859l1-.604-23.662-.001c-20.566 0-23.617.031-23.322.238" fill="#04abeb"/></g></svg>